<svg width="38" height="38" viewBox="0 0 38 38" fill="none" xmlns="http://www.w3.org/2000/svg">
<rect width="38" height="38" rx="8" fill="#24A338" fill-opacity="0.1"/>
<g clip-path="url(#clip0_10635_5650)">
<path opacity="0.15" d="M18.2863 21.977C18.5534 22.3506 18.7054 22.7941 18.7238 23.253C18.7238 23.5655 18.6858 23.803 18.5688 24.0185C18.4907 24.1673 18.3591 24.2809 18.2006 24.3366C18.042 24.3923 17.8683 24.3858 17.7143 24.3185C17.4994 24.22 17.3157 24.0643 17.1833 23.8685C16.8383 23.386 16.6793 22.849 16.7388 22.255C16.7558 22.0528 16.8267 21.8589 16.9443 21.6935C17.029 21.5781 17.1502 21.4947 17.2881 21.4566C17.4261 21.4185 17.5729 21.428 17.7048 21.4835C17.9498 21.585 18.1358 21.7645 18.2863 21.977Z" fill="#24A338"/>
<path opacity="0.15" d="M22.125 20.7565C22.3934 21.1357 22.544 21.5856 22.558 22.05C22.558 22.35 22.5175 22.5815 22.4015 22.8C22.219 23.1375 21.874 23.25 21.5285 23.0855C21.2215 22.94 21.02 22.6885 20.86 22.4005C20.6672 22.0578 20.564 21.6721 20.56 21.279C20.5489 21.031 20.604 20.7846 20.7195 20.565C20.902 20.2355 21.2325 20.123 21.5755 20.277C21.7989 20.3838 21.9888 20.5496 22.125 20.7565Z" fill="#24A338"/>
<path opacity="0.15" d="M18.9883 12.0449C17.7325 12.0451 16.4971 12.3626 15.397 12.9681C14.2968 13.5736 13.3676 14.4473 12.6956 15.5081C12.0236 16.5689 11.6306 17.7824 11.5532 19.0358C11.4758 20.2892 11.7165 21.5418 12.2529 22.6772C12.7893 23.8126 13.604 24.7941 14.6213 25.5303C15.6386 26.2665 16.8255 26.7336 18.0717 26.8882C19.318 27.0429 20.583 26.88 21.7494 26.4147C22.9158 25.9494 23.9456 25.1968 24.7433 24.2269C24.8363 24.1133 24.9256 23.9974 25.0113 23.8794C25.8202 22.7682 26.3059 21.4548 26.4147 20.0846C26.5235 18.7144 26.2511 17.3408 25.6277 16.1158C25.0042 14.8908 24.054 13.8622 22.8823 13.1437C21.7105 12.4252 20.3628 12.045 18.9883 12.0449ZM18.9883 25.8269C17.5802 25.8268 16.2123 25.3576 15.1006 24.4935C13.9889 23.6293 13.1967 22.4194 12.8493 21.0549C12.9359 20.7645 13.0456 20.4814 13.1773 20.2084C13.3273 19.8899 13.7443 19.2714 14.0193 19.0619C14.1263 18.9809 14.2378 18.9074 14.3468 18.8294C14.5828 18.6604 14.7153 18.2469 14.6213 17.9734C14.5753 17.8409 14.4753 17.7654 14.3533 17.7044C14.0128 17.5359 13.8488 17.2544 13.8533 16.8769C13.8578 16.4124 14.2533 16.0414 14.7328 16.0444C14.8854 16.0462 15.035 16.0878 15.1666 16.1652C15.2982 16.2425 15.4074 16.353 15.4831 16.4855C15.5589 16.618 15.5988 16.7681 15.5987 16.9208C15.5986 17.0734 15.5587 17.2235 15.4828 17.3559C15.4302 17.4344 15.4042 17.5277 15.4087 17.622C15.4132 17.7164 15.448 17.8068 15.5078 17.8799C15.6408 18.0624 15.8263 18.1579 16.0498 18.1149C16.2838 18.0699 16.5118 17.9904 16.7433 17.9314C17.2211 17.8165 17.7158 17.7894 18.2033 17.8514C18.6653 17.9044 19.1233 17.9844 19.5848 18.0389C20.6658 18.1679 21.6778 17.9749 22.5903 17.3594C22.6053 17.3489 22.6208 17.3394 22.6368 17.3299C23.2604 16.9542 23.7695 16.4153 24.1093 15.7714C24.7964 16.716 25.2089 17.8322 25.301 18.9966C25.3931 20.161 25.1613 21.3282 24.6313 22.369C24.1012 23.4098 23.2935 24.2838 22.2976 24.894C21.3016 25.5043 20.1563 25.8272 18.9883 25.8269Z" fill="#24A338"/>
<path d="M24.1096 15.7715C23.7696 16.4151 23.2603 16.9536 22.6366 17.329C22.6206 17.3385 22.6051 17.348 22.5901 17.3585C21.6776 17.974 20.6656 18.167 19.5846 18.038C19.1231 17.9835 18.6651 17.9035 18.2031 17.8505C17.7156 17.7885 17.2209 17.8156 16.7431 17.9305C16.5116 17.9895 16.2836 18.069 16.0496 18.114C15.8261 18.157 15.6406 18.064 15.5076 17.879C15.4478 17.8059 15.4131 17.7155 15.4086 17.6211C15.4041 17.5268 15.43 17.4335 15.4826 17.355C15.5585 17.2225 15.5985 17.0725 15.5986 16.9198C15.5986 16.7671 15.5588 16.6171 15.483 16.4846C15.4072 16.352 15.2981 16.2416 15.1665 16.1642C15.0348 16.0869 14.8853 16.0452 14.7326 16.0435C14.2546 16.0405 13.8576 16.4115 13.8531 16.876C13.8486 17.252 14.0126 17.535 14.3531 17.7035C14.4751 17.7645 14.5751 17.84 14.6211 17.9725C14.7151 18.246 14.5826 18.6595 14.3466 18.8285C14.2376 18.9065 14.1261 18.9785 14.0191 19.061C13.7441 19.2705 13.3281 19.889 13.1771 20.2075C13.0456 20.4805 12.9361 20.7636 12.8496 21.054C13.0791 21.9585 13.5056 22.8011 14.0986 23.5216C14.6916 24.242 15.4366 24.8225 16.2801 25.2216C17.1236 25.6206 18.0449 25.8283 18.978 25.8298C19.9112 25.8313 20.8331 25.6265 21.6779 25.2302C22.5227 24.8339 23.2695 24.2557 23.8649 23.5372C24.4602 22.8186 24.8894 21.9774 25.1217 21.0736C25.3541 20.1698 25.3838 19.2259 25.2089 18.3093C25.0339 17.3927 24.6585 16.5261 24.1096 15.7715ZM18.5686 24.0185C18.4905 24.1673 18.3589 24.2809 18.2004 24.3366C18.0418 24.3923 17.8681 24.3858 17.7141 24.3185C17.4992 24.22 17.3155 24.0643 17.1831 23.8685C16.8381 23.386 16.6791 22.849 16.7386 22.255C16.7556 22.0528 16.8265 21.8589 16.9441 21.6935C17.0288 21.5781 17.15 21.4947 17.2879 21.4566C17.4259 21.4185 17.5727 21.428 17.7046 21.4835C17.9516 21.5835 18.1356 21.7635 18.2861 21.976C18.5532 22.3496 18.7052 22.7931 18.7236 23.252C18.7226 23.5655 18.6856 23.8005 18.5686 24.0185ZM22.3996 22.8005C22.2171 23.138 21.8721 23.2505 21.5266 23.086C21.2196 22.9405 21.0181 22.689 20.8581 22.401C20.6653 22.0584 20.5621 21.6726 20.5581 21.2795C20.5471 21.0316 20.6021 20.7851 20.7176 20.5655C20.9001 20.236 21.2306 20.1235 21.5736 20.2775C21.7974 20.3848 21.9876 20.5513 22.1236 20.759C22.3918 21.1376 22.5426 21.5867 22.5571 22.0505C22.5556 22.3505 22.5166 22.5815 22.3996 22.8005Z" fill="#24A338"/>
<path d="M21.9766 16.6143C21.9763 16.7292 21.9535 16.843 21.9093 16.949C21.8651 17.0551 21.8005 17.1514 21.719 17.2325C21.6376 17.3136 21.541 17.3779 21.4348 17.4216C21.3285 17.4654 21.2147 17.4878 21.0998 17.4876C20.8677 17.4871 20.6454 17.3945 20.4816 17.2301C20.4005 17.1486 20.3363 17.0521 20.2925 16.9458C20.2487 16.8396 20.2263 16.7257 20.2266 16.6108C20.2292 16.379 20.3227 16.1575 20.487 15.9939C20.6513 15.8304 20.8732 15.7379 21.1051 15.7363C21.22 15.7366 21.3337 15.7595 21.4398 15.8038C21.5458 15.8481 21.6421 15.9129 21.723 15.9945C21.804 16.076 21.8681 16.1728 21.9116 16.2791C21.9551 16.3855 21.9772 16.4994 21.9766 16.6143Z" fill="#24A338"/>
<path d="M18.966 15.5664C19.0344 15.5662 19.1021 15.5794 19.1653 15.6054C19.2286 15.6313 19.2861 15.6695 19.3346 15.7176C19.3831 15.7658 19.4216 15.823 19.448 15.8861C19.4743 15.9492 19.488 16.0168 19.4883 16.0852C19.4885 16.1535 19.4753 16.2212 19.4493 16.2845C19.4234 16.3477 19.3852 16.4052 19.3371 16.4537C19.2889 16.5022 19.2316 16.5407 19.1686 16.5671C19.1055 16.5935 19.0379 16.6072 18.9695 16.6074C18.8315 16.6079 18.6989 16.5535 18.601 16.4562C18.503 16.3589 18.4477 16.2267 18.4473 16.0887C18.4468 15.9506 18.5012 15.818 18.5985 15.7201C18.6958 15.6222 18.828 15.5669 18.966 15.5664Z" fill="#24A338"/>
</g>
<defs>
<clipPath id="clip0_10635_5650">
<rect width="15" height="15" fill="white" transform="translate(11.5 12)"/>
</clipPath>
</defs>
</svg>
