<svg width="38" height="38" viewBox="0 0 38 38" fill="none" xmlns="http://www.w3.org/2000/svg">
<rect width="38" height="38" rx="8" fill="#DEC9F4" fill-opacity="0.1"/>
<path d="M26.4114 19.2472H22.2746C19.6401 19.2472 17.112 18.2004 15.2496 16.3366L14.7928 15.8798C14.7143 15.8013 14.5784 15.8574 14.5784 15.9681V17.56C14.5784 17.6286 14.5223 17.6847 14.4537 17.6847H13.1406C13.0719 17.6847 13.0159 17.6286 13.0159 17.56V13.1247C13.0159 13.0561 13.0719 13 13.1406 13H17.5759C17.6445 13 17.7006 13.0561 17.7006 13.1247V14.4364C17.7006 14.505 17.6445 14.5611 17.5759 14.5611H15.9839C15.8718 14.5611 15.8172 14.6956 15.8956 14.7755C17.7595 16.6393 20.2861 17.6861 22.9206 17.6861H25.5285C25.6238 17.6861 25.6869 17.5824 25.6378 17.4998C24.605 15.7438 22.695 14.5625 20.5159 14.5625H19.3892C19.3205 14.5625 19.2645 14.5065 19.2645 14.4378V13.1247C19.2645 13.0561 19.3205 13 19.3892 13H20.5159C23.6577 13 26.3525 14.9409 27.468 17.6861C27.4694 17.6917 27.4722 17.6959 27.4736 17.7015C27.7721 18.4428 27.2101 19.2486 26.4114 19.2486V19.2472Z" fill="#DEC9F4"/>
<path d="M26.4116 21.7528H22.2748C19.6403 21.7528 17.1123 22.7996 15.2499 24.6634L14.793 25.1202C14.7145 25.1987 14.5786 25.1427 14.5786 25.032V23.44C14.5786 23.3714 14.5226 23.3153 14.4539 23.3153H13.1408C13.0722 23.3153 13.0161 23.3714 13.0161 23.44V27.8753C13.0161 27.944 13.0722 28 13.1408 28H17.5761C17.6448 28 17.7008 27.944 17.7008 27.8753V26.5636C17.7008 26.495 17.6448 26.4389 17.5761 26.4389H15.9842C15.8721 26.4389 15.8174 26.3044 15.8959 26.2245C17.7597 24.3607 20.2863 23.3139 22.9209 23.3139H25.5288C25.6241 23.3139 25.6871 23.4176 25.6381 23.5003C24.6053 25.2562 22.6952 26.4375 20.5161 26.4375H19.3894C19.3208 26.4375 19.2647 26.4935 19.2647 26.5622V27.8739C19.2647 27.9426 19.3208 27.9986 19.3894 27.9986H20.5161C23.658 27.9986 26.3528 26.0578 27.4682 23.3125C27.4696 23.3069 27.4724 23.3027 27.4738 23.2971C27.7723 22.5558 27.2104 21.75 26.4116 21.75V21.7528Z" fill="#DEC9F4"/>
</svg>
