<svg width="38" height="38" viewBox="0 0 38 38" fill="none" xmlns="http://www.w3.org/2000/svg">
<rect width="38" height="38" rx="8" fill="#8866DD" fill-opacity="0.2"/>
<path d="M18.0309 16.4096C17.6675 16.4727 17.3069 16.5397 16.9523 16.6105C16.8246 16.6354 16.6969 16.6612 16.5703 16.688C16.2107 16.7626 15.855 16.842 15.5072 16.9253C15.3737 16.9569 15.2889 17.086 15.3133 17.2181L15.3756 17.5635C15.402 17.7099 15.5481 17.8027 15.6943 17.7673C16.0314 17.6869 16.3744 17.6094 16.7233 17.5367C16.8499 17.5099 16.9766 17.4841 17.1052 17.4583C17.4609 17.3874 17.8204 17.3195 18.1839 17.2573C20.3929 16.8746 22.521 16.6861 24.311 16.7071C24.7154 16.7119 25.1022 16.7263 25.4686 16.753C25.5153 16.7569 25.5611 16.7607 25.6059 16.7636C27.7087 16.9349 28.3528 17.42 28.4005 17.685C28.4483 17.9501 28.0118 18.6208 26.0951 19.4878C26.099 19.2131 26.0873 18.9366 26.0581 18.6582C26.0405 18.4735 26.0142 18.2898 25.9811 18.1042C25.9587 17.9798 25.9333 17.8563 25.9051 17.7348C25.8797 17.6267 25.7833 17.5482 25.6702 17.5406L24.9911 17.4946C24.8147 17.4831 24.6764 17.6439 24.7202 17.8113C24.7631 17.9721 24.7991 18.1357 24.8294 18.3032C24.88 18.5854 24.9112 18.8668 24.9209 19.1462C24.9326 19.4246 24.9248 19.7021 24.8975 19.9758C24.8898 20.0561 24.88 20.1365 24.8693 20.2169L24.8674 20.2332C24.8333 20.4781 24.7835 20.7202 24.7212 20.9565C24.6374 21.2752 24.5263 21.5852 24.3928 21.8828C23.5685 23.7343 21.8447 25.161 19.6708 25.538C17.532 25.9083 15.4487 25.1772 14.03 23.7611C13.9803 23.7113 13.9121 23.6826 13.841 23.6836L12.9776 23.6941C12.7584 23.697 12.6395 23.9487 12.7798 24.1142C14.4519 26.0843 17.1227 27.1465 19.8735 26.6699C22.8162 26.1599 25.0613 24.0262 25.8174 21.3728C25.9032 21.0762 25.9684 20.7738 26.0142 20.4647C26.1204 20.4198 26.2257 20.3748 26.328 20.3298C28.4424 19.3969 29.4285 18.4563 29.2639 17.5358C29.0992 16.6153 27.8442 16.0632 25.5329 15.8957C25.4208 15.8881 25.3068 15.8804 25.1908 15.8747C24.7524 15.8517 24.2876 15.8421 23.8033 15.8469C22.0728 15.8632 20.083 16.0546 18.0309 16.4105V16.4096Z" fill="#8866DD"/>
<path d="M11.4704 22.6701C11.5824 22.6778 11.6964 22.6855 11.8124 22.6912C12.2508 22.7151 12.7146 22.7247 13.1989 22.719C14.9293 22.7027 16.9199 22.5113 18.9719 22.1553C19.3353 22.0922 19.6968 22.0252 20.0515 21.9534C20.1791 21.9286 20.3068 21.9027 20.4334 21.8759C20.7939 21.8013 21.1486 21.7219 21.4964 21.6386C21.6299 21.607 21.7147 21.4778 21.6903 21.3458L21.628 21.0003C21.6017 20.8539 21.4555 20.7611 21.3094 20.7965C20.9722 20.8769 20.6283 20.9544 20.2804 21.0272C20.1538 21.0539 20.0271 21.0807 19.8985 21.1056C19.5429 21.1764 19.1833 21.2444 18.8189 21.3075C16.6101 21.6903 14.4811 21.8797 12.6912 21.8587C12.2869 21.853 11.9001 21.8377 11.5337 21.8108C11.4879 21.807 11.4411 21.8032 11.3963 21.8003C9.29465 21.629 8.64963 21.1448 8.60188 20.8798C8.55414 20.6147 8.99162 19.943 10.9072 19.076C10.9033 19.3506 10.915 19.6272 10.9442 19.9066C10.9618 20.0913 10.9881 20.276 11.0212 20.4616C11.0436 20.586 11.0689 20.7085 11.0972 20.83C11.1225 20.9382 11.219 21.0166 11.332 21.0243L12.0102 21.0702C12.1865 21.0817 12.3249 20.9209 12.281 20.7535C12.2382 20.5927 12.2021 20.4291 12.1719 20.2626C12.1212 19.9803 12.091 19.6971 12.0794 19.4176C12.0686 19.1382 12.0774 18.8617 12.1037 18.5889C12.1349 18.2559 12.1953 17.9287 12.2791 17.61C12.3638 17.2924 12.473 16.9833 12.6065 16.6857C13.4298 14.8321 15.1534 13.4044 17.3301 13.0274C19.4688 12.6571 21.55 13.3872 22.9687 14.8034C23.0184 14.8532 23.0866 14.8819 23.1577 14.8809L24.0229 14.8714C24.2422 14.8685 24.361 14.6168 24.2207 14.4513C22.5487 12.482 19.8771 11.4198 17.1265 11.8964C14.1839 12.4064 11.939 14.5412 11.1829 17.1938C11.0982 17.4904 11.0319 17.7928 10.9861 18.1009C10.8789 18.1449 10.7747 18.1899 10.6714 18.2349C8.55901 19.1679 7.572 20.1076 7.73666 21.0291C7.90133 21.9506 9.15726 22.5008 11.4675 22.6682L11.4704 22.6701Z" fill="#8866DD"/>
</svg>
