<svg width="1728" height="3752" viewBox="0 0 1728 3752" fill="none" xmlns="http://www.w3.org/2000/svg">
<g clip-path="url(#clip0_10555_8473)">
<rect width="1728" height="3752" fill="#252525"/>
<rect width="50.9791" height="50.9791" transform="matrix(0.939094 0.34366 -0.171929 -0.985109 127.615 665.925)" fill="#D5FF2F"/>
<rect width="50.9791" height="50.9791" transform="matrix(0.939094 0.34366 0.767165 -0.64145 118.849 615.707)" fill="#B2D32D"/>
<rect width="50.9791" height="50.9791" transform="matrix(0.171929 0.985109 0.767165 -0.64145 166.723 633.226)" fill="#8FA82B"/>
<rect width="20.8946" height="20.8946" transform="matrix(0.859499 -0.511138 -0.872408 -0.488779 36.9927 1251.12)" fill="#D5FF2F"/>
<rect width="20.8946" height="20.8946" transform="matrix(0.859499 -0.511138 -0.0129087 -0.999917 18.7642 1240.9)" fill="#B2D32D"/>
<rect width="20.8946" height="20.8946" transform="matrix(0.872408 0.488779 -0.0129087 -0.999917 36.7227 1230.22)" fill="#8FA82B"/>
<g opacity="0.4">
<rect width="47.9667" height="47.9667" transform="matrix(-0.695884 -0.718155 -0.273998 0.96173 224.408 1788.63)" fill="#D5FF2F"/>
<rect width="47.9667" height="47.9667" transform="matrix(-0.695884 -0.718155 -0.969882 0.243576 211.265 1834.76)" fill="#B2D32D"/>
<rect width="47.9667" height="47.9667" transform="matrix(0.273998 -0.96173 -0.969882 0.243576 177.887 1800.31)" fill="#8FA82B"/>
</g>
<rect width="36.4934" height="36.4934" transform="matrix(-0.984341 -0.176272 0.339515 0.940601 107.22 2671.38)" fill="#D5FF2F"/>
<rect width="36.4934" height="36.4934" transform="matrix(-0.984341 -0.176272 -0.644827 0.764329 119.609 2705.7)" fill="#B2D32D"/>
<rect width="36.4934" height="36.4934" transform="matrix(-0.339515 -0.940601 -0.644827 0.764329 83.688 2699.27)" fill="#8FA82B"/>
<rect width="16.5888" height="16.5888" transform="matrix(0.5 -0.866025 -1 2.58096e-08 30.8774 206.582)" fill="#D5FF2F"/>
<rect width="16.5888" height="16.5888" transform="matrix(0.5 -0.866025 -0.5 -0.866025 14.2891 206.582)" fill="#B2D32D"/>
<rect width="16.5888" height="16.5888" transform="matrix(1 -2.58096e-08 -0.5 -0.866025 22.5835 192.215)" fill="#8FA82B"/>
<rect width="50.9791" height="50.9791" transform="matrix(-0.939094 -0.34366 0.171929 0.985109 1613.91 2218.62)" fill="#D5FF2F"/>
<rect width="50.9791" height="50.9791" transform="matrix(-0.939094 -0.34366 -0.767165 0.64145 1622.67 2268.84)" fill="#B2D32D"/>
<rect width="50.9791" height="50.9791" transform="matrix(-0.171929 -0.985109 -0.767165 0.64145 1574.8 2251.32)" fill="#8FA82B"/>
<rect width="36.9665" height="36.9665" transform="matrix(-0.849643 0.527358 0.881527 0.472134 1593.25 3389.62)" fill="#D5FF2F"/>
<rect width="36.9665" height="36.9665" transform="matrix(-0.849643 0.527358 0.0318836 0.999492 1625.84 3407.08)" fill="#B2D32D"/>
<rect width="36.9665" height="36.9665" transform="matrix(-0.881527 -0.472134 0.0318836 0.999492 1594.43 3426.57)" fill="#8FA82B"/>
<g opacity="0.4">
<rect width="20.8946" height="20.8946" transform="matrix(-0.859499 0.511138 0.872408 0.488779 1704.53 1633.43)" fill="#D5FF2F"/>
<rect width="20.8946" height="20.8946" transform="matrix(-0.859499 0.511138 0.0129087 0.999917 1722.76 1643.64)" fill="#B2D32D"/>
<rect width="20.8946" height="20.8946" transform="matrix(-0.872408 -0.488779 0.0129087 0.999917 1704.8 1654.32)" fill="#8FA82B"/>
</g>
<rect width="47.9667" height="47.9667" transform="matrix(0.695884 0.718155 0.273998 -0.96173 1517.12 1095.92)" fill="#D5FF2F"/>
<rect width="47.9667" height="47.9667" transform="matrix(0.695884 0.718155 0.969882 -0.243576 1530.26 1049.79)" fill="#B2D32D"/>
<rect width="47.9667" height="47.9667" transform="matrix(-0.273998 0.96173 0.969882 -0.243576 1563.64 1084.23)" fill="#8FA82B"/>
<g opacity="0.4">
<rect width="33.2669" height="33.2669" transform="matrix(-0.5 0.866025 1 -2.58096e-08 1702.31 2663.52)" fill="#D5FF2F"/>
<rect width="33.2669" height="33.2669" transform="matrix(-0.5 0.866025 0.5 0.866025 1735.57 2663.52)" fill="#B2D32D"/>
<rect width="33.2669" height="33.2669" transform="matrix(-1 2.58096e-08 0.5 0.866025 1718.94 2692.33)" fill="#8FA82B"/>
</g>
<g filter="url(#filter0_f_10555_8473)">
<path d="M533.872 616.056C274.646 614.18 35.6916 487.083 -51.3823 423.769C-94.4425 391.666 -151.991 339.682 -37.7019 388.569C42.3183 452.422 268.553 582.181 533.331 590.397C864.303 600.668 932.741 572.456 1105.52 627.603C1319.73 695.972 1216.47 767.25 1415.12 770.683C1613.77 774.115 1712.42 780.931 1772.6 807.67C1710.14 781.813 1613.03 777.275 1418.93 778.661C1224.84 780.046 1252.54 705.19 1085.52 646.047C918.508 586.904 857.905 618.402 533.872 616.056Z" fill="url(#paint0_linear_10555_8473)"/>
</g>
<g filter="url(#filter1_f_10555_8473)">
<path d="M547.872 2968.96C288.646 2970.83 49.6916 3097.93 -37.3823 3161.24C-80.4425 3193.35 -137.991 3245.33 -23.7019 3196.44C56.3183 3132.59 282.553 3002.83 547.331 2994.62C878.303 2984.34 946.741 3012.56 1119.52 2957.41C1333.73 2889.04 1230.47 2817.76 1429.12 2814.33C1627.77 2810.9 1726.42 2804.08 1786.6 2777.34C1724.14 2803.2 1627.03 2807.74 1432.93 2806.35C1238.84 2804.97 1266.54 2879.82 1099.52 2938.97C932.508 2998.11 871.905 2966.61 547.872 2968.96Z" fill="url(#paint1_linear_10555_8473)"/>
</g>
<g filter="url(#filter2_f_10555_8473)">
<path d="M1207.98 1747.36C1472.45 1772.28 1702.77 1601.05 1784.88 1512.32C1825.4 1467.21 1878.57 1392.86 1767.13 1456.33C1692.29 1546.65 1475.23 1723.37 1205.78 1707.67C868.964 1688.05 796.061 1637 625.574 1703.88C414.211 1786.79 527.285 1908.3 324.836 1892.29C122.387 1876.28 22.4008 1876.25 -36.1711 1911.21C24.8203 1877.86 123.485 1881.25 321.802 1904.24C520.119 1927.22 483.8 1808.29 647.972 1734.6C812.144 1660.91 877.4 1716.21 1207.98 1747.36Z" fill="url(#paint2_linear_10555_8473)"/>
</g>
<g filter="url(#filter3_fn_10555_8473)">
<ellipse cx="1949.5" cy="2507" rx="224.5" ry="604" fill="#D5FF2F"/>
</g>
<g filter="url(#filter4_fn_10555_8473)">
<ellipse cx="-210.5" cy="706" rx="224.5" ry="604" fill="#D5FF2F"/>
</g>
<rect x="1651.24" y="61" width="1.83468" height="234.922" fill="#4B4C4B"/>
<g filter="url(#filter5_f_10555_8473)">
<path d="M1633.58 332.245C1633.58 332.245 1638.96 345 1652.16 345C1665.35 345 1670.73 332.245 1670.73 332.245L1660.08 311.517H1644.24L1633.58 332.245Z" fill="#D5FF2F" fill-opacity="0.5"/>
</g>
<path d="M1647.19 298.675H1657.13L1660.19 312.894H1644.13L1647.19 298.675Z" fill="#383838"/>
<path d="M1641.98 328.228C1641.98 328.228 1639.87 337.663 1652.16 337.663C1664.45 337.663 1662.34 328.228 1662.34 328.228L1659.53 312.895H1644.78L1641.98 328.228Z" fill="#D5FF2F" fill-opacity="0.5"/>
<path d="M1644.24 325.39C1644.24 325.39 1642.6 333.079 1652.16 333.079C1661.72 333.079 1660.08 325.39 1660.08 325.39L1657.89 312.897H1646.42L1644.24 325.39Z" fill="#D5FF2F"/>
<path d="M1647.1 298.675L1644.13 312.894H1651.93V298.675H1647.1Z" fill="#485127"/>
<path d="M1641.07 329.079C1641.07 329.079 1638.78 339.039 1652.16 339.039C1665.54 339.039 1663.25 329.079 1663.25 329.079L1660.19 312.895H1644.13L1641.07 329.079Z" fill="#E2E6E1" fill-opacity="0.15"/>
<rect x="1649.87" y="296.152" width="4.12802" height="2.29335" fill="#252525" stroke="#5E5F5D" stroke-width="0.458669"/>
<rect x="1588.46" y="61" width="2.11346" height="151.069" fill="#4B4C4B"/>
<g filter="url(#filter6_f_10555_8473)">
<path d="M1568.12 253.909C1568.12 253.909 1574.32 268.603 1589.52 268.603C1604.72 268.603 1610.92 253.909 1610.92 253.909L1598.64 230.032H1580.4L1568.12 253.909Z" fill="#D5FF2F" fill-opacity="0.5"/>
</g>
<path d="M1583.8 215.241H1595.24L1598.77 231.621H1580.27L1583.8 215.241Z" fill="#383838"/>
<path d="M1577.79 249.279C1577.79 249.279 1575.36 260.148 1589.52 260.148C1603.68 260.148 1601.25 249.279 1601.25 249.279L1598.02 231.616H1581.03L1577.79 249.279Z" fill="#D5FF2F" fill-opacity="0.5"/>
<path d="M1580.4 246.009C1580.4 246.009 1578.51 254.865 1589.52 254.865C1600.53 254.865 1598.64 246.009 1598.64 246.009L1596.13 231.617H1582.91L1580.4 246.009Z" fill="#D5FF2F"/>
<path d="M1583.7 215.241L1580.27 231.621H1589.26V215.241H1583.7Z" fill="#485127"/>
<path d="M1576.75 250.263C1576.75 250.263 1574.11 261.736 1589.52 261.736C1604.94 261.736 1602.29 250.263 1602.29 250.263L1598.77 231.619H1580.27L1576.75 250.263Z" fill="#E2E6E1" fill-opacity="0.15"/>
<rect x="1586.88" y="212.334" width="4.75529" height="2.64183" fill="#252525" stroke="#5E5F5D" stroke-width="0.528366"/>
<rect width="1.83468" height="234.922" transform="matrix(-1 0 0 1 79.1865 61)" fill="#4B4C4B"/>
<g filter="url(#filter7_f_10555_8473)">
<path d="M96.8452 332.245C96.8452 332.245 91.465 345 78.2691 345C65.0733 345 59.693 332.245 59.693 332.245L70.3515 311.517H86.1867L96.8452 332.245Z" fill="#D5FF2F" fill-opacity="0.5"/>
</g>
<path d="M83.2371 298.675H73.2993L70.2415 312.894H86.2949L83.2371 298.675Z" fill="#383838"/>
<path d="M88.4511 328.228C88.4511 328.228 90.5577 337.663 78.2683 337.663C65.979 337.663 68.0856 328.228 68.0856 328.228L70.8946 312.895H85.642L88.4511 328.228Z" fill="#D5FF2F" fill-opacity="0.5"/>
<path d="M86.1881 325.39C86.1881 325.39 87.8266 333.079 78.2682 333.079C68.7098 333.079 70.3483 325.39 70.3483 325.39L72.5331 312.897H84.0033L86.1881 325.39Z" fill="#D5FF2F"/>
<path d="M83.3245 298.675L86.2949 312.894H78.4975V298.675H83.3245Z" fill="#485127"/>
<path d="M89.3563 329.079C89.3563 329.079 91.6502 339.039 78.2685 339.039C64.8867 339.039 67.1806 329.079 67.1806 329.079L70.2393 312.895H86.2976L89.3563 329.079Z" fill="#E2E6E1" fill-opacity="0.15"/>
<rect x="-0.229335" y="0.229335" width="4.12802" height="2.29335" transform="matrix(-1 0 0 1 80.3323 295.923)" fill="#252525" stroke="#5E5F5D" stroke-width="0.458669"/>
<rect width="2.11346" height="47.4668" transform="matrix(-1 0 0 1 142.057 61)" fill="#4B4C4B"/>
<g filter="url(#filter8_f_10555_8473)">
<path d="M162.399 150.306C162.399 150.306 156.201 165 141 165C125.799 165 119.601 150.306 119.601 150.306L131.879 126.429H150.121L162.399 150.306Z" fill="#D5FF2F" fill-opacity="0.5"/>
</g>
<path d="M146.725 111.639H135.277L131.755 128.018H150.248L146.725 111.639Z" fill="#383838"/>
<path d="M152.73 145.676C152.73 145.676 155.157 156.545 141 156.545C126.844 156.545 129.27 145.676 129.27 145.676L132.506 128.014H149.495L152.73 145.676Z" fill="#D5FF2F" fill-opacity="0.5"/>
<path d="M150.125 142.406C150.125 142.406 152.012 151.263 141.001 151.263C129.99 151.263 131.878 142.406 131.878 142.406L134.395 128.015H147.608L150.125 142.406Z" fill="#D5FF2F"/>
<path d="M146.826 111.639L150.248 128.018H141.265V111.639H146.826Z" fill="#485127"/>
<path d="M153.774 146.661C153.774 146.661 156.416 158.134 141.001 158.134C125.586 158.134 128.228 146.661 128.228 146.661L131.752 128.017H150.25L153.774 146.661Z" fill="#E2E6E1" fill-opacity="0.15"/>
<rect x="-0.264183" y="0.264183" width="4.75529" height="2.64183" transform="matrix(-1 0 0 1 143.378 108.467)" fill="#252525" stroke="#5E5F5D" stroke-width="0.528366"/>
</g>
<defs>
<filter id="filter0_f_10555_8473" x="-108.638" y="364.539" width="1885.23" height="447.131" filterUnits="userSpaceOnUse" color-interpolation-filters="sRGB">
<feFlood flood-opacity="0" result="BackgroundImageFix"/>
<feBlend mode="normal" in="SourceGraphic" in2="BackgroundImageFix" result="shape"/>
<feGaussianBlur stdDeviation="2" result="effect1_foregroundBlur_10555_8473"/>
</filter>
<filter id="filter1_f_10555_8473" x="-94.6382" y="2773.34" width="1885.23" height="447.131" filterUnits="userSpaceOnUse" color-interpolation-filters="sRGB">
<feFlood flood-opacity="0" result="BackgroundImageFix"/>
<feBlend mode="normal" in="SourceGraphic" in2="BackgroundImageFix" result="shape"/>
<feGaussianBlur stdDeviation="2" result="effect1_foregroundBlur_10555_8473"/>
</filter>
<filter id="filter2_f_10555_8473" x="-40.1709" y="1427.76" width="1877.9" height="487.448" filterUnits="userSpaceOnUse" color-interpolation-filters="sRGB">
<feFlood flood-opacity="0" result="BackgroundImageFix"/>
<feBlend mode="normal" in="SourceGraphic" in2="BackgroundImageFix" result="shape"/>
<feGaussianBlur stdDeviation="2" result="effect1_foregroundBlur_10555_8473"/>
</filter>
<filter id="filter3_fn_10555_8473" x="1285.4" y="1463.4" width="1328.2" height="2087.2" filterUnits="userSpaceOnUse" color-interpolation-filters="sRGB">
<feFlood flood-opacity="0" result="BackgroundImageFix"/>
<feBlend mode="normal" in="SourceGraphic" in2="BackgroundImageFix" result="shape"/>
<feGaussianBlur stdDeviation="219.8" result="effect1_foregroundBlur_10555_8473"/>
<feTurbulence type="fractalNoise" baseFrequency="0.71428573131561279 0.71428573131561279" stitchTiles="stitch" numOctaves="3" result="noise" seed="4389" />
<feColorMatrix in="noise" type="luminanceToAlpha" result="alphaNoise" />
<feComponentTransfer in="alphaNoise" result="coloredNoise1">
<feFuncA type="discrete" tableValues="0 0 0 0 1 1 1 1 1 1 1 1 1 1 1 1 1 1 1 1 1 1 1 1 1 1 1 1 1 1 1 1 1 1 1 1 1 1 1 1 1 1 1 1 1 1 0 0 0 0 0 0 0 0 0 0 0 0 0 0 0 0 0 0 0 0 0 0 0 0 0 0 0 0 0 0 0 0 0 0 0 0 0 0 0 0 0 0 0 0 0 0 0 0 0 0 0 0 0 0 "/>
</feComponentTransfer>
<feComposite operator="in" in2="effect1_foregroundBlur_10555_8473" in="coloredNoise1" result="noise1Clipped" />
<feComponentTransfer in="alphaNoise" result="coloredNoise2">
<feFuncA type="discrete" tableValues="0 0 0 0 0 0 0 0 0 0 0 0 0 0 0 0 0 0 0 0 0 0 0 0 0 0 0 0 0 0 0 0 0 0 0 0 0 0 0 0 0 0 0 0 0 0 0 0 0 0 0 0 0 0 1 1 1 1 1 1 1 1 1 1 1 1 1 1 1 1 1 1 1 1 1 1 1 1 1 1 1 1 1 1 1 1 1 1 1 1 1 1 1 1 1 1 0 0 0 0 "/>
</feComponentTransfer>
<feComposite operator="in" in2="effect1_foregroundBlur_10555_8473" in="coloredNoise2" result="noise2Clipped" />
<feFlood flood-color="rgba(0, 0, 0, 0.25)" result="color1Flood" />
<feComposite operator="in" in2="noise1Clipped" in="color1Flood" result="color1" />
<feFlood flood-color="rgba(255, 255, 255, 0.25)" result="color2Flood" />
<feComposite operator="in" in2="noise2Clipped" in="color2Flood" result="color2" />
<feMerge result="effect2_noise_10555_8473">
<feMergeNode in="effect1_foregroundBlur_10555_8473" />
<feMergeNode in="color1" />
<feMergeNode in="color2" />
</feMerge>
</filter>
<filter id="filter4_fn_10555_8473" x="-874.6" y="-337.6" width="1328.2" height="2087.2" filterUnits="userSpaceOnUse" color-interpolation-filters="sRGB">
<feFlood flood-opacity="0" result="BackgroundImageFix"/>
<feBlend mode="normal" in="SourceGraphic" in2="BackgroundImageFix" result="shape"/>
<feGaussianBlur stdDeviation="219.8" result="effect1_foregroundBlur_10555_8473"/>
<feTurbulence type="fractalNoise" baseFrequency="0.71428573131561279 0.71428573131561279" stitchTiles="stitch" numOctaves="3" result="noise" seed="4389" />
<feColorMatrix in="noise" type="luminanceToAlpha" result="alphaNoise" />
<feComponentTransfer in="alphaNoise" result="coloredNoise1">
<feFuncA type="discrete" tableValues="0 0 0 0 1 1 1 1 1 1 1 1 1 1 1 1 1 1 1 1 1 1 1 1 1 1 1 1 1 1 1 1 1 1 1 1 1 1 1 1 1 1 1 1 1 1 0 0 0 0 0 0 0 0 0 0 0 0 0 0 0 0 0 0 0 0 0 0 0 0 0 0 0 0 0 0 0 0 0 0 0 0 0 0 0 0 0 0 0 0 0 0 0 0 0 0 0 0 0 0 "/>
</feComponentTransfer>
<feComposite operator="in" in2="effect1_foregroundBlur_10555_8473" in="coloredNoise1" result="noise1Clipped" />
<feComponentTransfer in="alphaNoise" result="coloredNoise2">
<feFuncA type="discrete" tableValues="0 0 0 0 0 0 0 0 0 0 0 0 0 0 0 0 0 0 0 0 0 0 0 0 0 0 0 0 0 0 0 0 0 0 0 0 0 0 0 0 0 0 0 0 0 0 0 0 0 0 0 0 0 0 1 1 1 1 1 1 1 1 1 1 1 1 1 1 1 1 1 1 1 1 1 1 1 1 1 1 1 1 1 1 1 1 1 1 1 1 1 1 1 1 1 1 0 0 0 0 "/>
</feComponentTransfer>
<feComposite operator="in" in2="effect1_foregroundBlur_10555_8473" in="coloredNoise2" result="noise2Clipped" />
<feFlood flood-color="rgba(0, 0, 0, 0.25)" result="color1Flood" />
<feComposite operator="in" in2="noise1Clipped" in="color1Flood" result="color1" />
<feFlood flood-color="rgba(255, 255, 255, 0.25)" result="color2Flood" />
<feComposite operator="in" in2="noise2Clipped" in="color2Flood" result="color2" />
<feMerge result="effect2_noise_10555_8473">
<feMergeNode in="effect1_foregroundBlur_10555_8473" />
<feMergeNode in="color1" />
<feMergeNode in="color2" />
</feMerge>
</filter>
<filter id="filter5_f_10555_8473" x="1622.57" y="300.509" width="59.1685" height="55.499" filterUnits="userSpaceOnUse" color-interpolation-filters="sRGB">
<feFlood flood-opacity="0" result="BackgroundImageFix"/>
<feBlend mode="normal" in="SourceGraphic" in2="BackgroundImageFix" result="shape"/>
<feGaussianBlur stdDeviation="5.50403" result="effect1_foregroundBlur_10555_8473"/>
</filter>
<filter id="filter6_f_10555_8473" x="1555.44" y="217.351" width="68.1592" height="63.9324" filterUnits="userSpaceOnUse" color-interpolation-filters="sRGB">
<feFlood flood-opacity="0" result="BackgroundImageFix"/>
<feBlend mode="normal" in="SourceGraphic" in2="BackgroundImageFix" result="shape"/>
<feGaussianBlur stdDeviation="6.34039" result="effect1_foregroundBlur_10555_8473"/>
</filter>
<filter id="filter7_f_10555_8473" x="48.6848" y="300.509" width="59.1685" height="55.499" filterUnits="userSpaceOnUse" color-interpolation-filters="sRGB">
<feFlood flood-opacity="0" result="BackgroundImageFix"/>
<feBlend mode="normal" in="SourceGraphic" in2="BackgroundImageFix" result="shape"/>
<feGaussianBlur stdDeviation="5.50403" result="effect1_foregroundBlur_10555_8473"/>
</filter>
<filter id="filter8_f_10555_8473" x="106.921" y="113.748" width="68.1589" height="63.9324" filterUnits="userSpaceOnUse" color-interpolation-filters="sRGB">
<feFlood flood-opacity="0" result="BackgroundImageFix"/>
<feBlend mode="normal" in="SourceGraphic" in2="BackgroundImageFix" result="shape"/>
<feGaussianBlur stdDeviation="6.34039" result="effect1_foregroundBlur_10555_8473"/>
</filter>
<linearGradient id="paint0_linear_10555_8473" x1="-116.856" y1="434.227" x2="1773.36" y2="803.786" gradientUnits="userSpaceOnUse">
<stop stop-color="#4A5327" stop-opacity="0"/>
<stop offset="0.8" stop-color="#D5FF2F" stop-opacity="0.15"/>
</linearGradient>
<linearGradient id="paint1_linear_10555_8473" x1="-102.856" y1="3150.79" x2="1787.36" y2="2781.23" gradientUnits="userSpaceOnUse">
<stop stop-color="#4A5327" stop-opacity="0"/>
<stop offset="0.8" stop-color="#D5FF2F" stop-opacity="0.15"/>
</linearGradient>
<linearGradient id="paint2_linear_10555_8473" x1="1852.85" y1="1535.55" x2="-37.3634" y2="1905.11" gradientUnits="userSpaceOnUse">
<stop stop-color="#4A5327" stop-opacity="0"/>
<stop offset="0.8" stop-color="#D5FF2F" stop-opacity="0.15"/>
</linearGradient>
<clipPath id="clip0_10555_8473">
<rect width="1728" height="3752" fill="white"/>
</clipPath>
</defs>
</svg>
