<svg xmlns="http://www.w3.org/2000/svg" viewBox="0 0 151 44" fill="none">
  
  <!-- Texte -->
  <path fill="currentColor" d="
    M63.863 29q-.195-.39-.317-1.392-1.575 1.636-3.76 1.636-1.953 0-3.21-1.099-1.245-1.11-1.245-2.807
    0-2.063 1.562-3.198 1.575-1.148 4.419-1.148h2.197v-1.037q0-1.184-.708-1.88-.708-.708-2.087-.708
    -1.209 0-2.026.61-.819.611-.818 1.477H55.6q0-.99.695-1.904.708-.928 1.904-1.465
    1.209-.537 2.65-.537 2.282 0 3.576 1.147 1.293 1.136 1.343 3.137v6.08q0 1.819.463 2.893V29zm-3.747-1.721
    a3.97 3.97 0 0 0 2.014-.55q.952-.549 1.38-1.428v-2.71h-1.77q-4.151 0-4.151 2.43
    0 1.06.708 1.66.708.598 1.819.598
  "></path>

  <!-- Bloc violet -->
  <rect x="0" y="0" width="44" height="44" rx="12" fill="#872AB0"></rect>

  <!-- Icône (haut) -->
  <path fill="#ffffff" fill-rule="evenodd" clip-rule="evenodd" d="
    M26.05 12l4.92 4.885 4.886-4.854L38 14.148l-7.03 6.983-4.92-4.885-7.759 7.703-4.163-4.133-4.984 4.948
    L7 22.646l7.128-7.076 4.163 4.133z
  "></path>

  <!-- Icône (bas) -->
  <path fill="#ffffff" fill-rule="evenodd" clip-rule="evenodd" d="
    M26.05 20.236l4.92 4.885 4.886-4.854L38 22.384l-7.03 6.983-4.92-4.885-7.759 7.703-4.163-4.133L9.144 33
    7 30.882l7.128-7.076 4.163 4.133z
  "></path>

</svg>