<svg width="38" height="38" viewBox="0 0 38 38" fill="none" xmlns="http://www.w3.org/2000/svg">
<rect x="0.5" y="0.5" width="37" height="37" rx="18.5" fill="#373B26"/>
<rect x="0.5" y="0.5" width="37" height="37" rx="18.5" stroke="#D5FF2F"/>
<path d="M24.5368 13.364L27.3331 11.9861L30.6111 10.3695V12.3091L27.3048 13.9386L25.7055 14.7267L11.471 21.7403L10.678 22.1309L9.87398 22.5277L7.38892 23.7528V21.8117L8.23299 21.3952C8.87351 21.0791 9.25782 20.4186 9.20359 19.7247C9.18473 19.4845 9.1753 19.2428 9.1753 19.0011C9.1753 13.7889 13.6102 9.5 19 9.5C21.0725 9.5 23.0931 10.1339 24.771 11.3119L24.5321 11.4297L22.932 12.2179C21.7334 11.5703 20.3825 11.2306 19.0095 11.2306C14.6013 11.2306 10.9719 14.7358 10.9664 18.9989C10.9664 19.3386 10.9892 19.6783 11.0348 20.015L24.5368 13.364Z" fill="#D5FF2F"/>
<path d="M12.2797 23.2771L30.6111 14.251V16.186L29.7655 16.6017C29.1258 16.9179 28.7422 17.5784 28.7965 18.2723C28.8145 18.5132 28.8248 18.7579 28.8248 19.0019C28.8232 24.2127 24.3883 28.5 19 28.5C16.9268 28.5 14.9054 27.8654 13.2275 26.6873L14.9628 25.8323L15.061 25.7821C16.2627 26.4335 17.6176 26.7755 18.9953 26.7755C23.4059 26.7755 27.036 23.2672 27.0384 19.0019C27.0384 18.6599 27.0156 18.3186 26.97 17.9797L13.4538 24.6398L10.6575 26.0177L7.38892 27.6282V25.6886L10.6803 24.0667L12.2797 23.2771Z" fill="#D5FF2F"/>
</svg>
