<svg width="46" height="17" viewBox="0 0 46 17" fill="none" xmlns="http://www.w3.org/2000/svg">
<path fill-rule="evenodd" clip-rule="evenodd" d="M5.90488 1.75222C5.99061 1.72708 6.08665 1.73257 6.18807 1.77391C6.55029 1.92155 6.84391 2.4705 6.84391 3.00002V4.54348L8.09429 5.05314C8.41082 5.21522 8.70472 5.45069 8.96471 5.73844C9.17949 5.99125 9.37167 6.31746 9.55252 6.73821C9.73339 7.15896 9.82382 7.67506 9.82382 8.30304V13.3764C9.82382 14.0044 9.73339 14.4632 9.55252 14.7366C9.37167 15.0099 9.16818 15.1748 8.95342 15.236L11.378 14.5402C11.5928 14.479 11.7963 14.3141 11.9771 14.0407C12.158 13.7674 12.2484 13.3085 12.2484 12.6805V7.6072C12.2484 6.97922 12.158 6.46312 11.9771 6.04237C11.7963 5.62162 11.6041 5.29541 11.3893 5.04261C11.1293 4.75485 10.8354 4.51938 10.5189 4.3573L9.26853 3.84764V2.30418C9.26853 1.77467 8.97491 1.22571 8.61269 1.07807C8.51127 1.03673 8.41522 1.03124 8.3295 1.05638L5.90488 1.75222Z" fill="#D5FF2F" fill-opacity="0.6"/>
<path fill-rule="evenodd" clip-rule="evenodd" d="M8.95381 15.2362C8.94025 15.2406 8.92676 15.2447 8.91336 15.2486L11.338 14.5527C11.3514 14.5489 11.3649 14.5447 11.3784 14.5404L8.95381 15.2362Z" fill="#D5FF2F" fill-opacity="0.6"/>
<path fill-rule="evenodd" clip-rule="evenodd" d="M8.91189 15.247C8.70197 15.3076 8.51326 15.3056 8.36452 15.276C8.29066 15.2594 7.77931 15.0645 6.84283 14.6872L9.26745 13.9914C10.2039 14.3686 10.7153 14.5635 10.7891 14.5801C10.9379 14.6097 11.1266 14.6118 11.3365 14.5512L8.91189 15.247Z" fill="#D5FF2F" fill-opacity="0.6"/>
<path fill-rule="evenodd" clip-rule="evenodd" d="M6.84333 14.6872V16.2323C6.84333 16.6135 6.69112 16.8807 6.47068 16.9454L8.8953 16.2496C9.11574 16.1849 9.26795 15.9177 9.26795 15.5364V13.9914L6.84333 14.6872Z" fill="#D5FF2F" fill-opacity="0.6"/>
<path fill-rule="evenodd" clip-rule="evenodd" d="M6.47117 16.9467C6.38545 16.9718 6.2894 16.9663 6.18798 16.925C5.82576 16.7773 5.53214 16.2284 5.53214 15.6989V14.1554L4.29197 13.6499L6.71659 12.9541L7.95676 13.4596V15.003C7.95676 15.5325 8.25038 16.0815 8.6126 16.2291C8.71402 16.2705 8.81007 16.276 8.89579 16.2508L6.47117 16.9467Z" fill="#D5FF2F" fill-opacity="0.6"/>
<path fill-rule="evenodd" clip-rule="evenodd" d="M4.29248 13.6499V15.1934C4.29248 15.5746 4.14026 15.8419 3.91982 15.9065L6.34444 15.2107C6.56488 15.146 6.7171 14.8788 6.7171 14.4975V12.9541L4.29248 13.6499Z" fill="#D5FF2F" fill-opacity="0.6"/>
<path fill-rule="evenodd" clip-rule="evenodd" d="M3.91886 15.9052C3.83313 15.9304 3.73709 15.9249 3.63567 15.8835C3.27344 15.7359 2.97983 15.1869 2.97983 14.6574V13.114L0 11.8994V1.75271L2.42462 1.05688V11.2035L5.40444 12.4181V13.9616C5.40444 14.4911 5.69806 15.0401 6.06028 15.1877C6.16171 15.229 6.25775 15.2345 6.34348 15.2094L3.91886 15.9052Z" fill="#D5FF2F" fill-opacity="0.6"/>
<path fill-rule="evenodd" clip-rule="evenodd" d="M0 1.75272L2.97983 2.9673L5.40444 2.27146L2.42462 1.05688L0 1.75272Z" fill="#D5FF2F" fill-opacity="0.6"/>
<path fill-rule="evenodd" clip-rule="evenodd" d="M2.97942 2.96808V1.42462C2.97942 1.04337 3.13164 0.776125 3.35207 0.711467L5.77669 0.0156285C5.55625 0.0802865 5.40404 0.347528 5.40404 0.728777V2.27224L2.97942 2.96808Z" fill="#D5FF2F" fill-opacity="0.6"/>
<path fill-rule="evenodd" clip-rule="evenodd" d="M3.35207 0.710974C3.43779 0.685829 3.53383 0.691322 3.63526 0.732662C3.99748 0.880305 4.29112 1.42926 4.29112 1.95878V3.50224L5.53129 4.00774L7.9559 3.3119L6.71574 2.8064V1.26294C6.71574 0.733426 6.4221 0.184466 6.05988 0.0368233C5.95845 -0.00451676 5.86241 -0.0100096 5.77668 0.0151352L3.35207 0.710974Z" fill="#D5FF2F" fill-opacity="0.6"/>
<path fill-rule="evenodd" clip-rule="evenodd" d="M5.53151 4.00738V2.46391C5.53151 2.08266 5.68372 1.81542 5.90416 1.75076L8.32877 1.05492C8.10834 1.11958 7.95612 1.38682 7.95612 1.76807V3.31154L5.53151 4.00738Z" fill="#D5FF2F" fill-opacity="0.6"/>
<path fill-rule="evenodd" clip-rule="evenodd" d="M6.37787 12.588C6.45082 12.5681 6.51796 12.5385 6.579 12.4989C6.78247 12.367 6.9068 11.988 6.94071 11.3573V7.9696C6.89549 7.45542 6.79376 7.01734 6.6129 6.62963C6.43205 6.24196 6.16075 5.9661 5.77639 5.80943L2.31734 4.39951C2.18622 4.34606 2.0779 4.33527 1.98799 4.35888L4.41261 3.66305C4.50252 3.63943 4.61084 3.65022 4.74196 3.70367L8.20101 5.11359C8.58537 5.27026 8.85667 5.54612 9.03751 5.93379C9.21838 6.3215 9.32011 6.75958 9.36533 7.27376V10.6615C9.33142 11.2922 9.20709 11.6712 9.00362 11.8031C8.94258 11.8426 8.87543 11.8723 8.80249 11.8921L6.37787 12.588Z" fill="#D5FF2F" fill-opacity="0.6"/>
<path fill-rule="evenodd" clip-rule="evenodd" d="M1.98805 4.35876C1.92295 4.37587 1.86749 4.41101 1.82002 4.46106C1.70697 4.59677 1.66175 4.77663 1.66175 4.97495C1.66175 5.18978 1.70697 5.4065 1.82002 5.61786C1.93305 5.84569 2.09133 5.99283 2.3174 6.08498L2.89392 6.31997V11.3933L5.77646 12.5683C6.00594 12.6271 6.20773 12.6341 6.37793 12.5878L8.80255 11.892C8.63234 11.9383 8.43056 11.9313 8.20107 11.8724L5.31854 10.6975V5.62413L4.74202 5.38914C4.51595 5.29699 4.35767 5.14985 4.24464 4.92202C4.13159 4.71067 4.08637 4.49394 4.08637 4.27911C4.08637 4.08079 4.13159 3.90093 4.24464 3.76522C4.29211 3.71517 4.34757 3.68003 4.41267 3.66293L1.98805 4.35876Z" fill="#D5FF2F" fill-opacity="0.6"/>
<path fill-rule="evenodd" clip-rule="evenodd" d="M5.53218 2.4639C5.53218 1.93439 5.8258 1.6248 6.18802 1.77244C6.55024 1.92009 6.84386 2.46904 6.84386 2.99855V4.54202L8.09424 5.05168C8.41077 5.21375 8.70467 5.44922 8.96466 5.73698C9.17944 5.98979 9.37162 6.31599 9.55247 6.73674C9.73334 7.15749 9.82377 7.67359 9.82377 8.30157V13.3749C9.82377 14.0029 9.73334 14.4618 9.55247 14.7351C9.37162 15.0084 9.16813 15.1734 8.95337 15.2346C8.72726 15.3076 8.52379 15.3073 8.36554 15.2759C8.29169 15.2593 7.78034 15.0644 6.84386 14.6871V16.2322C6.84386 16.7617 6.55024 17.0713 6.18802 16.9236C5.8258 16.776 5.53218 16.227 5.53218 15.6975V14.154L4.29201 13.6485V15.192C4.29201 15.7215 3.99838 16.0311 3.63615 15.8835C3.27393 15.7358 2.98031 15.1869 2.98031 14.6574V13.1139L0.00048839 11.8993V1.75263L2.98031 2.96722V1.42375C2.98031 0.894239 3.27393 0.584648 3.63615 0.732291C3.99838 0.879934 4.29201 1.42889 4.29201 1.95841V3.50187L5.53218 4.00737V2.4639ZM5.77689 12.5682C6.10473 12.6522 6.37603 12.6306 6.5795 12.4987C6.78297 12.3668 6.9073 11.9878 6.94121 11.3572V7.96941C6.89599 7.45523 6.79426 7.01715 6.6134 6.62944C6.43255 6.24177 6.16125 5.96591 5.77689 5.80924L2.31784 4.39932C2.09177 4.30717 1.93348 4.34182 1.82046 4.46099C1.70741 4.5967 1.66218 4.77656 1.66218 4.97488C1.66218 5.18971 1.70741 5.40644 1.82046 5.61779C1.93348 5.84562 2.09177 5.99276 2.31784 6.08491L2.89436 6.3199V11.3933L5.77689 12.5682Z" fill="#D5FF2F"/>
<path d="M27.206 5.15983C27.568 5.18568 27.904 5.27616 28.2013 5.41834C28.4469 5.54759 28.6666 5.74147 28.8734 6.0129C29.0802 6.28434 29.1836 6.65917 29.1836 7.15033V11.1184C29.1836 11.6096 29.0802 11.9973 28.8734 12.2688C28.6666 12.5402 28.434 12.7341 28.1884 12.8504C27.9299 12.9797 27.6972 13.0443 27.5163 13.0701C27.4128 13.0831 26.5598 13.096 24.9829 13.096C23.3931 13.096 21.0536 13.096 17.9515 13.096V5.15983H27.206ZM24.5564 11.7776C24.9312 11.7388 25.2414 11.6354 25.4741 11.4674C25.7067 11.2994 25.8489 10.9633 25.8877 10.4592V7.80952C25.836 7.42176 25.7196 7.11156 25.5128 6.86598C25.306 6.62039 24.9958 6.49114 24.5564 6.49114H20.6012C20.3427 6.49114 20.1617 6.56869 20.0325 6.69795C19.9032 6.84013 19.8515 6.99523 19.8515 7.15033C19.8515 7.31836 19.9032 7.47347 20.0325 7.60272C20.1617 7.7449 20.3427 7.80952 20.6012 7.80952H21.2604V11.7776H24.5564Z" fill="#D5FF2F"/>
<path d="M30.8558 5.17276H34.1647V13.1089H30.8558V5.17276Z" fill="#D5FF2F"/>
<path d="M41.3728 11.7776C41.7089 11.7776 41.9932 11.6871 42.2388 11.4803C42.4844 11.2735 42.6266 11.0021 42.6653 10.666C42.6653 10.6014 42.6783 10.4463 42.6783 10.1878C42.6783 9.92928 42.6912 9.58029 42.6912 9.14083H41.3728V7.82245H46.0001V11.1184C46.0001 11.6225 45.8967 12.0103 45.6899 12.2817C45.4831 12.5531 45.2633 12.747 45.0177 12.8633C44.7205 13.0184 44.3844 13.096 44.0225 13.1089H37.4047C37.0299 13.096 36.7068 13.0184 36.4224 12.8633C36.1639 12.747 35.9442 12.5531 35.7374 12.2817C35.5306 12.0103 35.4272 11.6225 35.4272 11.1184V7.16326C35.4789 6.58162 35.6469 6.10338 35.9571 5.72855C36.2673 5.36664 36.7455 5.17276 37.4047 5.17276H42.6912V3.85437H46.0001V6.49114H38.736V10.4592H38.0768C37.8183 10.4592 37.6374 10.5368 37.5081 10.666C37.3789 10.8082 37.3272 10.9633 37.3272 11.1184C37.3272 11.2864 37.3789 11.4415 37.5081 11.5708C37.6374 11.713 37.8183 11.7776 38.0768 11.7776H41.3728Z" fill="#D5FF2F"/>
</svg>
