<svg xmlns="http://www.w3.org/2000/svg" viewBox="0 0 24 24" fill="none">
  <defs>
    <linearGradient id="sol" x1="3" y1="19" x2="21" y2="5" gradientUnits="userSpaceOnUse">
      <stop stop-color="#9945FF"/>
      <stop offset="1" stop-color="#14F195"/>
    </linearGradient>
  </defs>
  <g fill="url(#sol)">
    <path d="M5.3 6.1a.9.9 0 0 1 .64-.27H21a.45.45 0 0 1 .32.77l-2.3 2.3a.9.9 0 0 1-.64.26H3.05a.45.45 0 0 1-.32-.77L5.3 6.1Z"/>
    <path d="M5.3 15.06a.9.9 0 0 1 .64-.26H21a.45.45 0 0 1 .32.77l-2.3 2.3a.9.9 0 0 1-.64.26H3.05a.45.45 0 0 1-.32-.77l2.57-2.3Z"/>
    <path d="M18.7 10.57a.9.9 0 0 0-.64-.27H3a.45.45 0 0 0-.32.77l2.3 2.3a.9.9 0 0 0 .64.27h15.06a.45.45 0 0 0 .32-.77l-2.3-2.3Z"/>
  </g>
</svg>
